<?xml version="1.0" standalone="no"?><!DOCTYPE svg PUBLIC "-//W3C//DTD SVG 1.1//EN" "http://www.w3.org/Graphics/SVG/1.1/DTD/svg11.dtd"><svg t="1540276503584" class="icon" style="" viewBox="0 0 1027 1024" version="1.1" xmlns="http://www.w3.org/2000/svg" p-id="1930" xmlns:xlink="http://www.w3.org/1999/xlink" width="200.5859375" height="200"><defs><style type="text/css"></style></defs><path d="M914.618182 114.036364 279.272727 114.036364c-16.290909 0-27.927273 13.963636-25.6 30.254545 2.327273 11.636364 11.636364 23.272727 25.6 23.272727l633.018182 0c37.236364 0 67.490909 34.909091 60.509091 72.145455l-55.854545 318.836364c-4.654545 27.927273-27.927273 48.872727-55.854545 51.2l-484.072727 34.909091c-13.963636 0-25.6 13.963636-23.272727 27.927273 0 13.963636 13.963636 25.6 27.927273 25.6l484.072727-34.909091c51.2-4.654545 93.090909-41.890909 102.4-93.090909L1024 246.690909C1035.636364 176.872727 984.436364 114.036364 914.618182 114.036364z" p-id="1931"></path><path d="M844.8 879.709091c-39.563636 0-72.145455 32.581818-72.145455 72.145455 0 39.563636 32.581818 72.145455 72.145455 72.145455 39.563636 0 72.145455-32.581818 72.145455-72.145455C914.618182 912.290909 884.363636 879.709091 844.8 879.709091z" p-id="1932"></path><path d="M330.472727 879.709091c-39.563636 0-72.145455 32.581818-72.145455 72.145455 0 39.563636 32.581818 72.145455 72.145455 72.145455 39.563636 0 72.145455-32.581818 72.145455-72.145455C402.618182 912.290909 370.036364 879.709091 330.472727 879.709091z" p-id="1933"></path><path d="M923.927273 774.981818 344.436364 774.981818c-30.254545 0-55.854545-23.272727-60.509091-51.2L223.418182 297.890909 188.509091 93.090909C181.527273 41.890909 134.981818 0 83.781818 0L25.6 0C11.636364 0 0 11.636364 0 25.6s11.636364 25.6 25.6 25.6c27.927273 0 72.145455 0 72.145455 0 16.290909 0 34.909091 16.290909 37.236364 34.909091l39.563636 223.418182L232.727273 733.090909c6.981818 53.527273 51.2 93.090909 104.727273 93.090909l586.472727 0c13.963636 0 25.6-11.636364 25.6-25.6 0 0 0 0 0 0C949.527273 786.618182 937.890909 774.981818 923.927273 774.981818z" p-id="1934"></path></svg>